#!OML:ASF H:\Terrain\Patient Classification 1\Walking\liu\liu.ASF
:FULLY-SPECIFIED
:DEGREES
238
root 9.62574 17.2607 16.1569 5.58038 3.24016 2.56923
lowerback -5.90597 -3.0995 -5.14652
upperback -1.54267 -3.85709 1.71336
thorax 2.16931 -1.9539 4.35064
lowerneck -22.4007 -1.41367 -10.2589
upperneck 30.2434 -1.17932 9.03116
head 14.2189 -0.427875 5.25866
rclavicle 2.82981e-014 -5.96354e-015
rhumerus -46.9852 18.1292 -93.0844
rradius 33.8914
rwrist -18.4279
rhand -25.9215 -32.7123
rfingers 7.12502
rthumb 0.621585 -62.6912
lclavicle 2.82981e-014 -5.96354e-015
lhumerus -15.4012 -22.564 89.2095
lradius 29.3314
lwrist 5.02613
lhand -16.3487 -25.5102
lfingers 7.12502
lthumb 9.86372 4.23874
rfemur -35.1905 -3.2261 20.1453
rtibia 40.2746
rfoot -13.7957 -6.64075
rtoes -19.8907
lfemur 0.098968 1.61855 -27.5649
ltibia 12.6265
lfoot -15.7512 -1.84775
ltoes 7.50486
239
root 9.62119 17.249 16.3571 5.85603 3.61291 2.77157
lowerback -6.20163 -3.26209 -5.39698
upperback -1.5512 -4.04043 1.63178
thorax 2.35737 -2.05092 4.37349
lowerneck -22.5083 -1.39829 -10.1798
upperneck 30.2356 -1.22353 9.16654
head 14.2444 -0.416839 5.29603
rclavicle 2.31382e-014 -1.19271e-015
rhumerus -47.7231 17.7331 -93.1122
rradius 33.7349
rwrist -18.2675
rhand -25.8165 -31.5505
rfingers 7.12502
rthumb 0.722967 -61.529
lclavicle 2.31382e-014 -1.19271e-015
lhumerus -13.9789 -23.2806 88.5737
lradius 30.0341
lwrist 5.63117
lhand -16.5614 -25.596
lfingers 7.12502
lthumb 9.6585 4.16261
rfemur -35.6614 -2.27954 19.4849
rtibia 37.2647
rfoot -14.2441 -6.83548
rtoes -20.3507
lfemur 1.0994 1.82584 -27.6169
ltibia 11.6032
lfoot -15.7522 -2.34032
ltoes 7.67575
240
root 9.60131 17.237 16.5358 6.13672 3.9597 2.7453
lowerback -6.15866 -3.41719 -5.63812
upperback -1.70039 -4.23884 1.71645
thorax 2.22528 -2.14455 4.58479
lowerneck -22.2708 -1.32641 -10.2344
upperneck 30.0306 -1.18111 9.36635
head 14.0975 -0.375194 5.37959
rclavicle 5.44033e-014 -1.31198e-014
rhumerus -48.4264 17.4908 -93.13
rradius 33.371
rwrist -18.208
rhand -26.6881 -29.5006
rfingers 7.12502
rthumb -0.118884 -59.4803
lclavicle 5.44033e-014 -1.31198e-014
lhumerus -12.7964 -23.7388 88.0193
lradius 30.9472
lwrist 6.20585
lhand -16.4706 -25.3487
lfingers 7.12502
lthumb 9.74617 4.40579
rfemur -36.2845 -0.563949 18.891
rtibia 34.4952
rfoot -14.7806 -7.73323
rtoes -20.3736
lfemur 2.37705 1.92435 -27.3542
ltibia 9.81416
lfoot -15.1787 -2.55407
ltoes 8.0013
241
root 9.58138 17.2109 16.7082 6.31912 4.26062 3.06609
lowerback -6.08798 -3.53536 -6.16223
upperback -1.67939 -4.36556 1.62519
thorax 2.25409 -2.21144 4.7745
lowerneck -22.2569 -1.36975 -10.1767
upperneck 29.7475 -1.28524 9.4512
head 13.9852 -0.395493 5.36905
rclavicle 2.13072e-014 -8.34896e-015
rhumerus -48.6402 16.7899 -92.8699
rradius 33.1722
rwrist -18.4036
rhand -27.3867 -28.0639
rfingers 7.12502
rthumb -0.79362 -58.0421
lclavicle 2.13072e-014 -8.34896e-015
lhumerus -11.3233 -24.7163 87.2393
lradius 31.8375
lwrist 7.15453
lhand -16.4894 -25.0509
lfingers 7.12502
lthumb 9.72804 4.70446
rfemur -36.764 1.32769 17.7543
rtibia 31.8318
rfoot -15.7598 -8.89523
rtoes -18.4707
lfemur 3.73305 2.03945 -27.4775
ltibia 8.04383
lfoot -14.5746 -2.85225
ltoes 8.29418
242
root 9.59165 17.1851 16.9463 6.20413 4.62815 3.95116
lowerback -6.23127 -3.68263 -6.86665
upperback -1.62309 -4.49646 1.25907
thorax 2.43255 -2.2855 4.76312
lowerneck -22.2 -1.46942 -10.1983
upperneck 29.7437 -1.47096 9.57072
head 13.9974 -0.463061 5.3894
rclavicle -2.82958e-015 -6.75868e-015
rhumerus -49.201 15.8089 -92.5327
rradius 32.9846
rwrist -18.2303
rhand -26.8617 -27.9879
rfingers 7.12502
rthumb -0.286533 -57.9675
lclavicle -2.82958e-015 -6.75868e-015
lhumerus -10.3523 -25.6824 86.5976
lradius 32.7379
lwrist 8.07853
lhand -16.6243 -25.0283
lfingers 7.12502
lthumb 9.59789 4.73312
rfemur -36.7615 1.8137 16.2228
rtibia 29.5541
rfoot -16.716 -9.16937
rtoes -18.1486
lfemur 6.00595 2.08034 -28.3163
ltibia 5.88034
lfoot -14.2716 -3.22199
ltoes 8.62264
243
root 9.58461 17.1655 17.1639 6.37993 4.60621 3.35518
lowerback -5.95289 -3.56637 -6.20938
upperback -2.2282 -4.41883 1.41111
thorax 1.602 -2.20321 4.6008
lowerneck -21.8138 -1.54492 -10.455
upperneck 30.1748 -1.61814 9.7813
head 14.1254 -0.543618 5.51736
rclavicle -4.5969e-016 -7.15625e-015
rhumerus -50.9418 15.5526 -92.9613
rradius 31.9842
rwrist -17.5644
rhand -26.4316 -29.4247
rfingers 7.12502
rthumb 0.128849 -59.4044
lclavicle -4.5969e-016 -7.15625e-015
lhumerus -10.4212 -25.6969 86.6371
lradius 33.5784
lwrist 8.0888
lhand -16.7701 -25.4542
lfingers 7.12502
lthumb 9.45714 4.31359
rfemur -37.4904 3.84709 15.9377
rtibia 27.7533
rfoot -17.5808 -10.4795
rtoes -17.6889
lfemur 9.6712 2.58122 -27.5063
ltibia -1.90833e-014
lfoot -12.0243 -3.24057
ltoes 8.65401
244
root 9.5807 17.1372 17.3856 6.28724 4.7535 3.51983
lowerback -6.60896 -3.62163 -6.49482
upperback -1.6338 -4.41651 1.39911
thorax 2.60497 -2.24879 4.68733
lowerneck -22.3502 -1.65329 -10.5903
upperneck 29.8289 -1.69014 9.9072
head 14.1044 -0.556757 5.57133
rclavicle -1.68121e-014 -5.56597e-015
rhumerus -50.5986 15.4173 -92.8614
rradius 31.1958
rwrist -17.0509
rhand -13.0853 -38.5037
rfingers 7.12502
rthumb 13.0109 -68.0779
lclavicle -1.68121e-014 -5.56597e-015
lhumerus -8.35677 -25.5444 85.8419
lradius 34.1409
lwrist 8.11351
lhand -16.8731 -25.7832
lfingers 7.12502
lthumb 9.35776 3.9891
rfemur -38.0408 5.93197 14.6357
rtibia 26.6074
rfoot -19.6417 -11.6218
rtoes -19.129
lfemur 10.612 2.89151 -27.4933
ltibia -2.54444e-014
lfoot -12.2624 -3.42825
ltoes 8.05731
245
root 9.5806 17.1114 17.6032 6.35263 5.04175 4.0014
lowerback -6.95519 -3.7806 -6.96099
upperback -1.48857 -4.56164 1.24286
thorax 2.99123 -2.33946 4.7424
lowerneck -22.1066 -1.63153 -10.5642
upperneck 29.4036 -1.68282 9.93737
head 13.866 -0.540949 5.54836
rclavicle 4.70561e-015 2.06736e-014
rhumerus -50.7858 14.5754 -92.3932
rradius 30.4948
rwrist -15.9461
rhand -7.27162 -43.0527
rfingers 7.12502
rthumb 18.6096 -72.1825
lclavicle 4.70561e-015 2.06736e-014
lhumerus -7.16011 -25.4664 85.3095
lradius 34.8603
lwrist 8.60926
lhand -16.7224 -26.4196
lfingers 7.12502
lthumb 9.50322 3.34609
rfemur -38.7281 5.67695 13.9477
rtibia 25.6787
rfoot -20.4691 -10.9416
rtoes -17.9261
lfemur 11.387 3.01843 -27.8645
ltibia 3.49861e-014
lfoot -12.3959 -3.65733
ltoes 7.12256
246
root 9.57649 17.0896 17.82 6.44613 5.23475 4.11986
lowerback -7.30973 -3.90305 -7.10759
upperback -1.4152 -4.68374 1.22649
thorax 3.29248 -2.41282 4.76768
lowerneck -22.0533 -1.64471 -10.5599
upperneck 29.3062 -1.68492 9.87852
head 13.8126 -0.548447 5.51527
rclavicle -7.00095e-015 -2.5842e-014
rhumerus -50.9889 13.8843 -91.9136
rradius 29.5022
rwrist -15.1403
rhand -17.4864 -32.4336
rfingers 7.12502
rthumb 8.76602 -62.2316
lclavicle -7.00095e-015 -2.5842e-014
lhumerus -6.21842 -25.3324 84.8771
lradius 35.6346
lwrist 9.20618
lhand -17.0264 -27.127
lfingers 7.12502
lthumb 9.20987 2.65186
rfemur -39.6212 5.62006 13.6873
rtibia 25.2474
rfoot -21.1828 -10.2765
rtoes -15.3148
lfemur 12.1182 3.25871 -27.7962
ltibia -3.81667e-014
lfoot -12.5563 -4.00125
ltoes 6.65111
247
root 9.56875 17.071 18.0365 6.46391 5.39873 4.00645
lowerback -7.66533 -3.95024 -7.07069
upperback -1.23362 -4.71899 1.27428
thorax 3.68724 -2.44767 4.76334
lowerneck -22.2968 -1.72334 -10.6457
upperneck 29.3935 -1.76663 9.94324
head 13.9159 -0.582908 5.55403
rclavicle -7.42336e-015 4.37326e-015
rhumerus -51.0191 13.1896 -91.4291
rradius 28.5541
rwrist -14.5606
rhand -21.7896 -27.4392
rfingers 7.12502
rthumb 4.61192 -57.369
lclavicle -7.42336e-015 4.37326e-015
lhumerus -5.10558 -25.1176 84.4169
lradius 36.235
lwrist 9.13442
lhand -16.7639 -26.6801
lfingers 7.12502
lthumb 9.46316 3.08743
rfemur -40.3587 5.66356 13.7176
rtibia 25.0261
rfoot -21.8115 -9.49802
rtoes -14.6693
lfemur 12.9124 3.54623 -27.3986
ltibia 6.36111e-015
lfoot -12.6335 -4.40794
ltoes 6.25238
